<?xml version="1.0" encoding="UTF-8"?><svg xmlns="http://www.w3.org/2000/svg" xmlns:xlink="http://www.w3.org/1999/xlink" fill-opacity="1" color-rendering="auto" color-interpolation="auto" text-rendering="auto" stroke="black" stroke-linecap="square" width="1307" stroke-miterlimit="10" shape-rendering="auto" stroke-opacity="1" fill="black" stroke-dasharray="none" font-weight="normal" stroke-width="1" height="824" font-family="'Dialog'" font-style="normal" stroke-linejoin="miter" font-size="12px" stroke-dashoffset="0" image-rendering="auto">
  <!--Generated by ySVG 2.6-->
  <defs id="genericDefs"/>
  <g>
    <defs id="defs1">
      <clipPath clipPathUnits="userSpaceOnUse" id="clipPath1">
        <path d="M0 0 L1307 0 L1307 824 L0 824 L0 0 Z"/>
      </clipPath>
      <clipPath clipPathUnits="userSpaceOnUse" id="clipPath2">
        <path d="M41 -74 L1348 -74 L1348 750 L41 750 L41 -74 Z"/>
      </clipPath>
      <clipPath clipPathUnits="userSpaceOnUse" id="clipPath3">
        <path d="M37 -78 L1344 -78 L1344 746 L37 746 L37 -78 Z"/>
      </clipPath>
    </defs>
    <g fill="white" text-rendering="geometricPrecision" shape-rendering="geometricPrecision" transform="translate(-41,74)" stroke="white">
      <rect x="41" width="1307" height="824" y="-74" clip-path="url(#clipPath2)" stroke="none"/>
    </g>
    <g fill="yellow" text-rendering="geometricPrecision" shape-rendering="geometricPrecision" transform="matrix(1,0,0,1,-41,74)" stroke="yellow">
      <rect x="56.5309" y="197.2352" clip-path="url(#clipPath2)" width="178.5682" rx="4" ry="4" height="44" stroke="none"/>
    </g>
    <g font-size="16px" stroke-linecap="butt" transform="matrix(1,0,0,1,-41,74)" text-rendering="geometricPrecision" font-family="sans-serif" shape-rendering="geometricPrecision" stroke-miterlimit="1.45">
      <text x="66.6509" xml:space="preserve" y="225.5204" clip-path="url(#clipPath2)" stroke="none">atlas:LinkedOpenData</text>
      <rect x="56.5309" y="197.2352" clip-path="url(#clipPath2)" fill="none" width="178.5682" rx="4" ry="4" height="44"/>
    </g>
    <g fill="rgb(255,153,204)" text-rendering="geometricPrecision" shape-rendering="geometricPrecision" transform="matrix(1,0,0,1,-41,74)" stroke="rgb(255,153,204)">
      <circle r="10" clip-path="url(#clipPath2)" cx="541.19" cy="219.2352" stroke="none"/>
    </g>
    <g font-size="16px" stroke-linecap="butt" transform="matrix(1,0,0,1,-41,74)" text-rendering="geometricPrecision" font-family="sans-serif" shape-rendering="geometricPrecision" stroke-miterlimit="1.45">
      <text x="339.1681" xml:space="preserve" y="176.6735" clip-path="url(#clipPath2)" stroke="none">atlas:1728943937-3007112</text>
      <circle fill="none" stroke-width="3" r="10" clip-path="url(#clipPath2)" cx="541.19" cy="219.2352"/>
    </g>
    <g fill="yellow" text-rendering="geometricPrecision" shape-rendering="geometricPrecision" transform="matrix(1,0,0,1,-41,74)" stroke="yellow">
      <rect x="56.5309" y="-6.5648" clip-path="url(#clipPath2)" width="183.9682" rx="4" ry="4" height="44" stroke="none"/>
    </g>
    <g font-size="16px" stroke-linecap="butt" transform="matrix(1,0,0,1,-41,74)" text-rendering="geometricPrecision" font-family="sans-serif" shape-rendering="geometricPrecision" stroke-miterlimit="1.45">
      <text x="59.1439" xml:space="preserve" y="21.7204" clip-path="url(#clipPath2)" stroke="none">schema:ResearchProject</text>
      <rect x="56.5309" y="-6.5648" clip-path="url(#clipPath2)" fill="none" width="183.9682" rx="4" ry="4" height="44"/>
    </g>
    <g fill="rgb(255,153,204)" text-rendering="geometricPrecision" shape-rendering="geometricPrecision" transform="matrix(1,0,0,1,-41,74)" stroke="rgb(255,153,204)">
      <circle r="10" clip-path="url(#clipPath2)" cx="541.19" cy="15.4352" stroke="none"/>
    </g>
    <g font-size="16px" stroke-linecap="butt" transform="matrix(1,0,0,1,-41,74)" text-rendering="geometricPrecision" font-family="sans-serif" shape-rendering="geometricPrecision" stroke-miterlimit="1.45">
      <text x="340.0781" xml:space="preserve" y="-14.0296" clip-path="url(#clipPath2)" stroke="none">atlas:1728984604-1499374</text>
      <circle fill="none" stroke-width="3" r="10" clip-path="url(#clipPath2)" cx="541.19" cy="15.4352"/>
      <text x="880.84" xml:space="preserve" y="109.0407" clip-path="url(#clipPath2)" stroke="none">"Zeri Photo Archive RDF Dataset"^^xsd:string</text>
      <text x="880.84" xml:space="preserve" y="155.2" clip-path="url(#clipPath2)" stroke="none">"2016-05-20"^^xsd:date</text>
    </g>
    <g fill="rgb(255,153,204)" text-rendering="geometricPrecision" shape-rendering="geometricPrecision" transform="matrix(1,0,0,1,-41,74)" stroke="rgb(255,153,204)">
      <circle r="10" clip-path="url(#clipPath2)" cx="888.84" cy="199.3563" stroke="none"/>
    </g>
    <g font-size="16px" stroke-linecap="butt" transform="matrix(1,0,0,1,-41,74)" text-rendering="geometricPrecision" font-family="sans-serif" shape-rendering="geometricPrecision" stroke-miterlimit="1.45">
      <text x="904.84" xml:space="preserve" y="205.6414" clip-path="url(#clipPath2)" stroke="none">atlas:1728944565-1916842</text>
      <circle fill="none" stroke-width="3" r="10" clip-path="url(#clipPath2)" cx="888.84" cy="199.3563"/>
      <text x="874.84" xml:space="preserve" y="-40.85" clip-path="url(#clipPath2)" stroke="none">"Zeri &amp; LODE"^^xsd:string</text>
      <text x="880.84" xml:space="preserve" y="306.0829" clip-path="url(#clipPath2)" stroke="none">"1.1"^^xsd:string</text>
    </g>
    <g fill="yellow" text-rendering="geometricPrecision" shape-rendering="geometricPrecision" transform="matrix(1,0,0,1,-41,74)" stroke="yellow">
      <rect x="56.5309" y="417.1383" clip-path="url(#clipPath2)" width="183.9682" rx="4" ry="4" height="44" stroke="none"/>
    </g>
    <g font-size="16px" stroke-linecap="butt" transform="matrix(1,0,0,1,-41,74)" text-rendering="geometricPrecision" font-family="sans-serif" shape-rendering="geometricPrecision" stroke-miterlimit="1.45">
      <text x="63.1439" xml:space="preserve" y="445.4235" clip-path="url(#clipPath2)" stroke="none">fabio:ComputerProgram</text>
      <rect x="56.5309" y="417.1383" clip-path="url(#clipPath2)" fill="none" width="183.9682" rx="4" ry="4" height="44"/>
    </g>
    <g fill="rgb(255,153,204)" text-rendering="geometricPrecision" shape-rendering="geometricPrecision" transform="matrix(1,0,0,1,-41,74)" stroke="rgb(255,153,204)">
      <circle r="10" clip-path="url(#clipPath2)" cx="541.19" cy="439.1383" stroke="none"/>
    </g>
    <g font-size="16px" stroke-linecap="butt" transform="matrix(1,0,0,1,-41,74)" text-rendering="geometricPrecision" font-family="sans-serif" shape-rendering="geometricPrecision" stroke-miterlimit="1.45">
      <text x="339.2447" xml:space="preserve" y="404.1735" clip-path="url(#clipPath2)" stroke="none">atlas:1728987090-372862</text>
      <circle fill="none" stroke-width="3" r="10" clip-path="url(#clipPath2)" cx="541.19" cy="439.1383"/>
    </g>
    <g fill="rgb(255,153,204)" text-rendering="geometricPrecision" shape-rendering="geometricPrecision" transform="matrix(1,0,0,1,-41,74)" stroke="rgb(255,153,204)">
      <circle r="10" clip-path="url(#clipPath2)" cx="888.84" cy="249.3563" stroke="none"/>
    </g>
    <g font-size="16px" stroke-linecap="butt" transform="matrix(1,0,0,1,-41,74)" text-rendering="geometricPrecision" font-family="sans-serif" shape-rendering="geometricPrecision" stroke-miterlimit="1.45">
      <text x="904.84" xml:space="preserve" y="255.6414" clip-path="url(#clipPath2)" stroke="none">atlas:1728943969-854</text>
      <circle fill="none" stroke-width="3" r="10" clip-path="url(#clipPath2)" cx="888.84" cy="249.3563"/>
      <text x="862.34" xml:space="preserve" y="398.4938" clip-path="url(#clipPath2)" stroke="none">"Zeri Photo Archive RDF Dataset - SPARQL endpoint"^^xsd:string</text>
    </g>
    <g fill="rgb(255,153,204)" text-rendering="geometricPrecision" shape-rendering="geometricPrecision" transform="matrix(1,0,0,1,-41,74)" stroke="rgb(255,153,204)">
      <circle r="10" clip-path="url(#clipPath2)" cx="870.34" cy="468.3571" stroke="none"/>
    </g>
    <g font-size="16px" stroke-linecap="butt" transform="matrix(1,0,0,1,-41,74)" text-rendering="geometricPrecision" font-family="sans-serif" shape-rendering="geometricPrecision" stroke-miterlimit="1.45">
      <text x="886.34" xml:space="preserve" y="474.6422" clip-path="url(#clipPath2)" stroke="none">dataservicetype:SPARQL_ENDPOINT</text>
      <circle fill="none" stroke-width="3" r="10" clip-path="url(#clipPath2)" cx="870.34" cy="468.3571"/>
      <path fill="none" d="M531.19 219.2352 L243.0553 219.2352" clip-path="url(#clipPath2)"/>
      <path d="M235.0553 219.2352 L247.0553 224.2352 L244.0553 219.2352 L247.0553 214.2352 Z" stroke="none" clip-path="url(#clipPath2)"/>
    </g>
    <g stroke-linecap="butt" transform="matrix(1,0,0,1,-41,74)" fill="white" text-rendering="geometricPrecision" shape-rendering="geometricPrecision" stroke="white" stroke-miterlimit="1.45">
      <rect x="309.1587" width="147.9717" height="38.3027" y="200.0838" clip-path="url(#clipPath2)" stroke="none"/>
    </g>
    <g font-size="14px" stroke-linecap="butt" transform="matrix(1,0,0,1,-41,74)" text-rendering="geometricPrecision" font-family="sans-serif" shape-rendering="geometricPrecision" stroke-miterlimit="1.45">
      <text x="359.7998" xml:space="preserve" y="216.159" clip-path="url(#clipPath2)" stroke="none">rdf:type</text>
      <text x="311.1587" xml:space="preserve" y="233.3104" clip-path="url(#clipPath2)" stroke="none">schema:additionalType</text>
      <path fill="none" d="M541.19 209.2352 L541.19 33.4352" clip-path="url(#clipPath2)"/>
      <path d="M541.19 25.4352 L536.19 37.4352 L541.19 34.4352 L546.19 37.4352 Z" stroke="none" clip-path="url(#clipPath2)"/>
    </g>
    <g stroke-linecap="butt" transform="matrix(1,0,0,1,-41,74)" fill="white" text-rendering="geometricPrecision" shape-rendering="geometricPrecision" stroke="white" stroke-miterlimit="1.45">
      <rect x="485.1075" width="112.165" height="21.1514" y="106.7595" clip-path="url(#clipPath2)" stroke="none"/>
    </g>
    <g font-size="14px" stroke-linecap="butt" transform="matrix(1,0,0,1,-41,74)" text-rendering="geometricPrecision" font-family="sans-serif" shape-rendering="geometricPrecision" stroke-miterlimit="1.45">
      <text x="487.1075" xml:space="preserve" y="122.8347" clip-path="url(#clipPath2)" stroke="none">schema:producer</text>
      <path fill="none" d="M531.19 15.4352 L248.4934 15.4352" clip-path="url(#clipPath2)"/>
      <path d="M240.4934 15.4352 L252.4934 20.4352 L249.4934 15.4352 L252.4934 10.4352 Z" stroke="none" clip-path="url(#clipPath2)"/>
    </g>
    <g stroke-linecap="butt" transform="matrix(1,0,0,1,-41,74)" fill="white" text-rendering="geometricPrecision" shape-rendering="geometricPrecision" stroke="white" stroke-miterlimit="1.45">
      <rect x="360.4998" width="50.6895" height="21.1514" y="4.8595" clip-path="url(#clipPath2)" stroke="none"/>
    </g>
    <g font-size="14px" stroke-linecap="butt" transform="matrix(1,0,0,1,-41,74)" text-rendering="geometricPrecision" font-family="sans-serif" shape-rendering="geometricPrecision" stroke-miterlimit="1.45">
      <text x="362.4998" xml:space="preserve" y="20.9347" clip-path="url(#clipPath2)" stroke="none">rdf:type</text>
      <path fill="none" d="M549.2225 213.2787 L659.59 131.4352 L870.9106 100.7633" clip-path="url(#clipPath2)"/>
      <path d="M878.8276 99.6142 L866.2339 96.3897 L869.921 100.9069 L867.6703 106.286 Z" stroke="none" clip-path="url(#clipPath2)"/>
    </g>
    <g stroke-linecap="butt" transform="matrix(1,0,0,1,-41,74)" fill="white" text-rendering="geometricPrecision" shape-rendering="geometricPrecision" stroke="white" stroke-miterlimit="1.45">
      <rect x="718.6872" width="91.9307" height="21.1514" y="105.6103" clip-path="url(#clipPath2)" stroke="none"/>
    </g>
    <g font-size="14px" stroke-linecap="butt" transform="matrix(1,0,0,1,-41,74)" text-rendering="geometricPrecision" font-family="sans-serif" shape-rendering="geometricPrecision" stroke-miterlimit="1.45">
      <text x="720.6872" xml:space="preserve" y="121.6855" clip-path="url(#clipPath2)" stroke="none">schema:name</text>
      <path fill="none" d="M550.223 214.9452 L661.84 161.9352 L870.8546 149.3207" clip-path="url(#clipPath2)"/>
      <path d="M878.84 148.8387 L866.5606 144.5707 L869.8564 149.3809 L867.163 154.5526 Z" stroke="none" clip-path="url(#clipPath2)"/>
    </g>
    <g stroke-linecap="butt" transform="matrix(1,0,0,1,-41,74)" fill="white" text-rendering="geometricPrecision" shape-rendering="geometricPrecision" stroke="white" stroke-miterlimit="1.45">
      <rect x="692.9538" width="145.6475" height="21.1514" y="145.0866" clip-path="url(#clipPath2)" stroke="none"/>
    </g>
    <g font-size="14px" stroke-linecap="butt" transform="matrix(1,0,0,1,-41,74)" text-rendering="geometricPrecision" font-family="sans-serif" shape-rendering="geometricPrecision" stroke-miterlimit="1.45">
      <text x="694.9538" xml:space="preserve" y="161.1618" clip-path="url(#clipPath2)" stroke="none">schema:datePublished</text>
      <path fill="none" d="M551.0547 217.5963 L660.84 199.3563 L870.84 199.3563" clip-path="url(#clipPath2)"/>
      <path d="M878.84 199.3563 L866.84 194.3563 L869.84 199.3563 L866.84 204.3563 Z" stroke="none" clip-path="url(#clipPath2)"/>
    </g>
    <g stroke-linecap="butt" transform="matrix(1,0,0,1,-41,74)" fill="white" text-rendering="geometricPrecision" shape-rendering="geometricPrecision" stroke="white" stroke-miterlimit="1.45">
      <rect x="708.4157" width="113.7236" height="21.1514" y="188.7806" clip-path="url(#clipPath2)" stroke="none"/>
    </g>
    <g font-size="14px" stroke-linecap="butt" transform="matrix(1,0,0,1,-41,74)" text-rendering="geometricPrecision" font-family="sans-serif" shape-rendering="geometricPrecision" stroke-miterlimit="1.45">
      <text x="710.4157" xml:space="preserve" y="204.8558" clip-path="url(#clipPath2)" stroke="none">schema:publisher</text>
      <path fill="none" d="M550.412 11.568 L656.25 -32.8148 L864.8575 -46.6244" clip-path="url(#clipPath2)"/>
      <path d="M872.84 -47.1528 L860.5359 -51.3492 L863.8597 -46.5583 L861.1965 -41.3711 Z" stroke="none" clip-path="url(#clipPath2)"/>
    </g>
    <g stroke-linecap="butt" transform="matrix(1,0,0,1,-41,74)" fill="white" text-rendering="geometricPrecision" shape-rendering="geometricPrecision" stroke="white" stroke-miterlimit="1.45">
      <rect x="714.0172" width="91.9307" height="21.1514" y="-50.2575" clip-path="url(#clipPath2)" stroke="none"/>
    </g>
    <g font-size="14px" stroke-linecap="butt" transform="matrix(1,0,0,1,-41,74)" text-rendering="geometricPrecision" font-family="sans-serif" shape-rendering="geometricPrecision" stroke-miterlimit="1.45">
      <text x="716.0172" xml:space="preserve" y="-34.1823" clip-path="url(#clipPath2)" stroke="none">schema:name</text>
      <path fill="none" d="M550.3482 223.2511 L663.75 272.9774 L870.8784 299.4595" clip-path="url(#clipPath2)"/>
      <path d="M878.8138 300.474 L867.5448 293.9926 L869.8865 299.3326 L866.2766 303.9118 Z" stroke="none" clip-path="url(#clipPath2)"/>
    </g>
    <g stroke-linecap="butt" transform="matrix(1,0,0,1,-41,74)" fill="white" text-rendering="geometricPrecision" shape-rendering="geometricPrecision" stroke="white" stroke-miterlimit="1.45">
      <rect x="715.712" width="102.041" height="21.1514" y="275.5684" clip-path="url(#clipPath2)" stroke="none"/>
    </g>
    <g font-size="14px" stroke-linecap="butt" transform="matrix(1,0,0,1,-41,74)" text-rendering="geometricPrecision" font-family="sans-serif" shape-rendering="geometricPrecision" stroke-miterlimit="1.45">
      <text x="717.712" xml:space="preserve" y="291.6436" clip-path="url(#clipPath2)" stroke="none">schema:version</text>
      <path fill="none" d="M541.19 229.2352 L541.19 421.1383" clip-path="url(#clipPath2)"/>
      <path d="M541.19 429.1383 L546.19 417.1383 L541.19 420.1383 L536.19 417.1383 Z" stroke="none" clip-path="url(#clipPath2)"/>
    </g>
    <g stroke-linecap="butt" transform="matrix(1,0,0,1,-41,74)" fill="white" text-rendering="geometricPrecision" shape-rendering="geometricPrecision" stroke="white" stroke-miterlimit="1.45">
      <rect x="493.2798" width="95.8203" height="21.1514" y="318.6111" clip-path="url(#clipPath2)" stroke="none"/>
    </g>
    <g font-size="14px" stroke-linecap="butt" transform="matrix(1,0,0,1,-41,74)" text-rendering="geometricPrecision" font-family="sans-serif" shape-rendering="geometricPrecision" stroke-miterlimit="1.45">
      <text x="495.2798" xml:space="preserve" y="334.6863" clip-path="url(#clipPath2)" stroke="none">atlas:servedBy</text>
      <path fill="none" d="M531.19 439.1383 L248.4934 439.1383" clip-path="url(#clipPath2)"/>
      <path d="M240.4934 439.1383 L252.4934 444.1383 L249.4934 439.1383 L252.4934 434.1383 Z" stroke="none" clip-path="url(#clipPath2)"/>
    </g>
    <g stroke-linecap="butt" transform="matrix(1,0,0,1,-41,74)" fill="white" text-rendering="geometricPrecision" shape-rendering="geometricPrecision" stroke="white" stroke-miterlimit="1.45">
      <rect x="360.4998" width="50.6895" height="21.1514" y="428.5626" clip-path="url(#clipPath2)" stroke="none"/>
    </g>
    <g font-size="14px" stroke-linecap="butt" transform="matrix(1,0,0,1,-41,74)" text-rendering="geometricPrecision" font-family="sans-serif" shape-rendering="geometricPrecision" stroke-miterlimit="1.45">
      <text x="362.4998" xml:space="preserve" y="444.6378" clip-path="url(#clipPath2)" stroke="none">rdf:type</text>
      <path fill="none" d="M551.0214 221.0638 L662.8125 241.8563 L870.8499 248.7594" clip-path="url(#clipPath2)"/>
      <path d="M878.8455 249.0247 L867.0179 243.6295 L869.8505 248.7262 L866.6863 253.6239 Z" stroke="none" clip-path="url(#clipPath2)"/>
    </g>
    <g stroke-linecap="butt" transform="matrix(1,0,0,1,-41,74)" fill="white" text-rendering="geometricPrecision" shape-rendering="geometricPrecision" stroke="white" stroke-miterlimit="1.45">
      <rect x="716.0225" width="100.4824" height="21.1514" y="234.7133" clip-path="url(#clipPath2)" stroke="none"/>
    </g>
    <g font-size="14px" stroke-linecap="butt" transform="matrix(1,0,0,1,-41,74)" text-rendering="geometricPrecision" font-family="sans-serif" shape-rendering="geometricPrecision" stroke-miterlimit="1.45">
      <text x="718.0225" xml:space="preserve" y="250.7885" clip-path="url(#clipPath2)" stroke="none">schema:creator</text>
      <path fill="none" d="M550.9561 436.9879 L668.2083 411.1696 L852.3725 394.5133" clip-path="url(#clipPath2)"/>
      <path d="M860.34 393.7928 L847.9384 389.894 L851.3765 394.6034 L848.8391 399.8533 Z" stroke="none" clip-path="url(#clipPath2)"/>
    </g>
    <g stroke-linecap="butt" transform="matrix(1,0,0,1,-41,74)" fill="white" text-rendering="geometricPrecision" shape-rendering="geometricPrecision" stroke="white" stroke-miterlimit="1.45">
      <rect x="713.7463" width="91.9307" height="21.1514" y="392.3181" clip-path="url(#clipPath2)" stroke="none"/>
    </g>
    <g font-size="14px" stroke-linecap="butt" transform="matrix(1,0,0,1,-41,74)" text-rendering="geometricPrecision" font-family="sans-serif" shape-rendering="geometricPrecision" stroke-miterlimit="1.45">
      <text x="715.7463" xml:space="preserve" y="408.3933" clip-path="url(#clipPath2)" stroke="none">schema:name</text>
      <path fill="none" d="M550.9711 441.2194 L678.5208 468.3571 L852.34 468.3571" clip-path="url(#clipPath2)"/>
      <path d="M860.34 468.3571 L848.34 463.3571 L851.34 468.3571 L848.34 473.3571 Z" stroke="none" clip-path="url(#clipPath2)"/>
    </g>
    <g stroke-linecap="butt" transform="matrix(1,0,0,1,-41,74)" fill="white" text-rendering="geometricPrecision" shape-rendering="geometricPrecision" stroke="white" stroke-miterlimit="1.45">
      <rect x="722.7991" width="84.1377" height="21.1514" y="457.7814" clip-path="url(#clipPath2)" stroke="none"/>
    </g>
    <g font-size="14px" stroke-linecap="butt" transform="matrix(1,0,0,1,-41,74)" text-rendering="geometricPrecision" font-family="sans-serif" shape-rendering="geometricPrecision" stroke-miterlimit="1.45">
      <text x="724.7991" xml:space="preserve" y="473.8566" clip-path="url(#clipPath2)" stroke="none">dcterms:type</text>
    </g>
    <g fill="rgb(210,210,210)" text-rendering="geometricPrecision" shape-rendering="geometricPrecision" transform="matrix(1,0,0,1,-41,74) translate(4,4)" stroke="rgb(210,210,210)">
      <rect x="617.0741" width="699.146" height="173.9858" y="556.1443" clip-path="url(#clipPath3)" stroke="none"/>
    </g>
    <g fill="white" text-rendering="geometricPrecision" shape-rendering="geometricPrecision" transform="matrix(1,0,0,1,-41,74)" stroke="white">
      <rect x="617.0741" width="699.146" height="173.9858" y="556.1443" clip-path="url(#clipPath2)" stroke="none"/>
      <rect x="617.0741" y="556.1443" clip-path="url(#clipPath2)" fill="rgb(183,182,158)" width="699.146" height="22.3765" stroke="none"/>
    </g>
    <g font-size="15px" stroke-linecap="butt" transform="matrix(1,0,0,1,-41,74)" text-rendering="geometricPrecision" font-family="sans-serif" shape-rendering="geometricPrecision" font-weight="bold" stroke-miterlimit="1.45">
      <text x="1243.3436" xml:space="preserve" y="573.2249" clip-path="url(#clipPath2)" stroke="none">Prefixes   </text>
      <rect fill="none" x="617.0741" width="699.146" height="173.9858" y="556.1443" clip-path="url(#clipPath2)"/>
      <text x="829.4939" font-size="16px" y="611.6067" clip-path="url(#clipPath2)" stroke="none" font-weight="normal" xml:space="preserve">http://www.w3id.org/dh-atlas/</text>
      <text x="829.4939" font-size="16px" y="631.2083" clip-path="url(#clipPath2)" stroke="none" font-weight="normal" xml:space="preserve">http://publications.europa.eu/resource/authority/data-service-type/</text>
      <text x="829.4939" font-size="16px" y="650.8098" clip-path="url(#clipPath2)" stroke="none" font-weight="normal" xml:space="preserve">http://purl.org/dc/terms/</text>
      <text x="829.4939" font-size="16px" y="670.4114" clip-path="url(#clipPath2)" stroke="none" font-weight="normal" xml:space="preserve">http://purl.org/spar/fabio/</text>
      <text x="829.4939" font-size="16px" y="690.0129" clip-path="url(#clipPath2)" stroke="none" font-weight="normal" xml:space="preserve">http://schema.org/</text>
      <text x="829.4939" font-size="16px" y="709.6145" clip-path="url(#clipPath2)" stroke="none" font-weight="normal" xml:space="preserve">http://www.w3.org/2000/01/rdf-schema#</text>
      <text x="641.574" xml:space="preserve" font-size="16px" y="611.6067" clip-path="url(#clipPath2)" stroke="none">atlas:</text>
      <text x="641.574" xml:space="preserve" font-size="16px" y="631.2083" clip-path="url(#clipPath2)" stroke="none">dataservicetype:</text>
      <text x="641.574" xml:space="preserve" font-size="16px" y="650.8098" clip-path="url(#clipPath2)" stroke="none">dcterms:</text>
      <text x="641.574" xml:space="preserve" font-size="16px" y="670.4114" clip-path="url(#clipPath2)" stroke="none">fabio:</text>
      <text x="641.574" xml:space="preserve" font-size="16px" y="690.0129" clip-path="url(#clipPath2)" stroke="none">schema:</text>
      <text x="641.574" xml:space="preserve" font-size="16px" y="709.6145" clip-path="url(#clipPath2)" stroke="none">rdfs:</text>
    </g>
  </g>
</svg>
